#define clock_width 16
#define clock_height 16
static unsigned char clock_bits[] = {
   0xe0, 0x03, 0x38, 0x0e, 0x8c, 0x18, 0x26, 0x32, 0x82, 0x20, 0x8b, 0x68,
   0x81, 0x40, 0x85, 0x53, 0x01, 0x40, 0x0b, 0x68, 0x02, 0x20, 0x26, 0x32,
   0x8c, 0x18, 0x38, 0x0e, 0xe0, 0x03, 0x00, 0x00 };
